PathFileType	4	(x/y/z)	S04_SL_Cal.trc
DataRate	CameraRate	NumFrames	NumMarkers	Units	OrigDataRate	OrigDataStartFrame	OrigNumFrames
240	240	11	51	mm	240	1	2400
Frame#	Time	Sternum			R.Acromium			L.Acromium			Top.Head			R.ASIS			L.ASIS			R.PSIS			L.PSIS			R.Great.Tro			L.Great.Tro			R.Iliac.Crest			L.Iliac.Crest			V.Sacral			R.Thigh.Upper.Post			R.Thigh.Lower.Ant			R.Thigh.Lower.Post			R.Thigh.Upper.Ant			R.Knee.Lat			R.Knee.Med			R.Shank.Upper.Post			R.Shank.Lower.Ant			R.Shank.Lower.Post			R.Shank.Upper.Ant			R.Ankle.Lat			R.Ankle.Med			R.Heel.Upper			R.Heel.Med			R.Heel.Lat			R.Toe.Lat			R.Toe.Med			R.Toe.Tip			L.Thigh.Upper.Post			L.Thigh.Lower.Ant			L.Thigh.Lower.Post			L.Thigh.Upper.Ant			L.Knee.Lat			L.Knee.Med			L.Shank.Upper.Post			L.Shank.Lower.Ant			L.Shank.Lower.Post			L.Shank.Upper.Ant			L.Ankle.Lat			L.Ankle.Med			L.Heel.Upper			L.Heel.Med			L.Heel.Lat			L.Toe.Lat			L.Toe.Med			L.Toe.Tip			Cervical.Spine			Back			
		X1	Y1	Z1	X2	Y2	Z2	X3	Y3	Z3	X4	Y4	Z4	X5	Y5	Z5	X6	Y6	Z6	X7	Y7	Z7	X8	Y8	Z8	X9	Y9	Z9	X10	Y10	Z10	X11	Y11	Z11	X12	Y12	Z12	X13	Y13	Z13	X14	Y14	Z14	X15	Y15	Z15	X16	Y16	Z16	X17	Y17	Z17	X18	Y18	Z18	X19	Y19	Z19	X20	Y20	Z20	X21	Y21	Z21	X22	Y22	Z22	X23	Y23	Z23	X24	Y24	Z24	X25	Y25	Z25	X26	Y26	Z26	X27	Y27	Z27	X28	Y28	Z28	X29	Y29	Z29	X30	Y30	Z30	X31	Y31	Z31	X32	Y32	Z32	X33	Y33	Z33	X34	Y34	Z34	X35	Y35	Z35	X36	Y36	Z36	X37	Y37	Z37	X38	Y38	Z38	X39	Y39	Z39	X40	Y40	Z40	X41	Y41	Z41	X42	Y42	Z42	X43	Y43	Z43	X44	Y44	Z44	X45	Y45	Z45	X46	Y46	Z46	X47	Y47	Z47	X48	Y48	Z48	X49	Y49	Z49	X50	Y50	Z50	X51	Y51	Z51	

1	0	354.93	1295.3	276.78	210.84	1522.2	451.25	187.6	1511.7	113.97	198.55	1837.9	271.41	331.14	1002.3	415.91	336.01	1014.3	165.87	122.43	1047.2	314.38	131.26	1049.8	232.74	233.54	929.12	479.82	213.91	936.9	100.25	249.66	1097.9	457.11	237.34	1102	119.24	103.79	1008	272.98	203.95	676.14	492.1	270.58	584.07	465.96	194.43	585.45	485.58	290.59	692.88	477.17	211.85	515.81	479.51	190.71	498.63	354.58	135.51	293.64	494.1	208.12	215.8	465.13	138.52	222.99	484.76	207.23	290.85	476.65	155.89	108.17	475.48	182.97	114.6	388.84	96.852	73.945	419.55	109.57	43.877	390.17	97.883	42.05	453.91	261.96	39.443	518.81	309.07	36.976	408.5	365.7	54.865	463.22	167.7	713.12	95.926	235.44	607.06	90.395	165.24	623.53	98.293	232.71	696.88	82.578	192.03	521.97	95.867	194.16	500.13	217.66	108.74	342.7	82.201	184.37	262.07	74.02	120.51	265.49	82.859	172.93	338.06	72.949	176.5	105.01	82.314	185.14	108.97	172.97	106.13	71.696	121.98	112.89	46.842	155.4	110.66	44.173	93.809	293.65	42.859	52.733	326.43	49.198	167.39	383.07	59.332	118.06	161.15	1555.5	287.08	96.136	1298.6	266.87
2	0.0041667	354.92	1295.2	276.72	210.87	1522.2	451.27	188.88	1511.7	113.8	198.59	1837.9	271.43	331.16	1002.3	415.9	336.02	1014.3	165.89	122.45	1047.2	314.36	131.29	1049.8	232.69	233.58	929.13	479.83	213.93	936.93	100.25	249.72	1097.9	457.12	237.22	1102	119.2	103.78	1007.9	272.94	203.99	676.16	492.12	270.62	584.04	466	194.48	585.48	485.64	290.61	692.86	477.21	211.87	515.81	479.5	190.74	498.68	354.59	135.57	293.72	494.29	208.15	215.79	465.12	138.29	223.05	484.75	206.28	290.08	477.85	155.89	108.17	475.53	182.94	114.61	388.85	96.866	73.965	419.56	109.54	43.897	390.22	97.873	42.068	453.96	261.99	39.509	518.88	309.41	37.463	407.93	365.97	55.177	462.79	167.69	713.12	95.992	235.46	607.08	90.388	165.24	623.53	98.37	232.77	696.97	82.492	192.06	522	95.893	194.11	500.13	217.7	108.86	342.77	82.153	184.38	262.09	74.049	120.52	265.51	82.902	172.95	338.08	72.989	176.43	105.1	82.284	185.17	108.99	173.01	106.12	71.712	121.98	112.87	46.847	155.41	110.66	44.194	93.846	293.66	42.887	52.756	326.44	49.21	167.49	383.05	59.32	118.06	161.23	1555.5	287.08	96.141	1298.6	266.87
3	0.0083333	354.91	1295.1	276.67	210.9	1522.2	451.29	190.12	1511.7	113.64	198.63	1837.9	271.45	331.18	1002.3	415.88	336.02	1014.3	165.9	122.47	1047.2	314.35	131.31	1049.8	232.63	233.62	929.13	479.84	213.94	936.95	100.25	249.78	1097.9	457.13	237.11	1102.1	119.15	103.78	1007.9	272.91	204.02	676.18	492.14	270.66	584.02	466.04	194.52	585.5	485.7	290.64	692.83	477.25	211.9	515.8	479.5	190.78	498.72	354.59	135.63	293.81	494.47	208.17	215.79	465.12	138.07	223.12	484.73	205.35	289.33	479.01	155.89	108.17	475.58	182.91	114.62	388.86	96.88	73.985	419.57	109.51	43.916	390.26	97.863	42.086	454	262.01	39.574	518.93	309.74	37.946	407.37	366.24	55.485	462.36	167.69	713.11	96.057	235.49	607.1	90.381	165.25	623.53	98.446	232.84	697.05	82.408	192.1	522.03	95.918	194.06	500.13	217.73	108.98	342.84	82.105	184.4	262.1	74.078	120.53	265.54	82.944	172.97	338.09	73.028	176.37	105.2	82.254	185.19	109	173.05	106.11	71.728	121.99	112.86	46.853	155.43	110.65	44.215	93.882	293.67	42.915	52.779	326.44	49.222	167.59	383.04	59.307	118.06	161.32	1555.5	287.09	96.147	1298.6	266.87
4	0.0125	354.9	1295	276.62	210.93	1522.2	451.31	191.3	1511.6	113.48	198.68	1837.9	271.47	331.2	1002.3	415.87	336.03	1014.3	165.92	122.48	1047.2	314.34	131.34	1049.8	232.59	233.65	929.13	479.84	213.96	936.97	100.25	249.84	1097.9	457.13	237	1102.1	119.11	103.78	1007.9	272.87	204.05	676.19	492.16	270.7	584	466.09	194.56	585.52	485.76	290.66	692.8	477.29	211.92	515.8	479.5	190.81	498.76	354.6	135.68	293.89	494.65	208.19	215.78	465.11	137.85	223.18	484.72	204.44	288.62	480.12	155.88	108.17	475.62	182.88	114.63	388.87	96.893	74.005	419.57	109.48	43.934	390.31	97.854	42.103	454.04	262.04	39.636	518.99	310.05	38.414	406.83	366.51	55.79	461.94	167.69	713.11	96.119	235.52	607.11	90.374	165.26	623.53	98.52	232.9	697.13	82.327	192.13	522.07	95.943	194.02	500.13	217.77	109.1	342.9	82.057	184.42	262.12	74.105	120.54	265.56	82.984	172.99	338.11	73.066	176.32	105.29	82.226	185.22	109.02	173.09	106.11	71.743	121.99	112.85	46.859	155.44	110.64	44.235	93.917	293.68	42.942	52.802	326.45	49.234	167.69	383.03	59.295	118.07	161.39	1555.4	287.1	96.153	1298.6	266.87
5	0.016667	354.89	1294.9	276.58	210.96	1522.2	451.33	192.38	1511.6	113.34	198.72	1837.9	271.49	331.22	1002.3	415.86	336.04	1014.3	165.93	122.5	1047.2	314.33	131.36	1049.9	232.54	233.69	929.14	479.85	213.98	936.99	100.25	249.9	1097.9	457.14	236.89	1102.2	119.07	103.78	1007.9	272.84	204.08	676.21	492.18	270.74	583.98	466.12	194.6	585.55	485.81	290.68	692.78	477.33	211.95	515.79	479.49	190.84	498.8	354.6	135.74	293.96	494.81	208.21	215.78	465.11	137.64	223.24	484.7	203.58	287.96	481.15	155.88	108.17	475.67	182.85	114.64	388.88	96.906	74.023	419.58	109.44	43.952	390.35	97.844	42.119	454.08	262.06	39.694	519.05	310.34	38.859	406.31	366.79	56.092	461.52	167.69	713.1	96.178	235.54	607.13	90.367	165.26	623.53	98.588	232.96	697.21	82.252	192.16	522.1	95.966	193.97	500.14	217.8	109.21	342.97	82.011	184.43	262.14	74.131	120.55	265.58	83.022	173	338.13	73.102	176.26	105.38	82.2	185.24	109.03	173.12	106.1	71.757	121.99	112.84	46.864	155.46	110.63	44.254	93.951	293.69	42.967	52.824	326.45	49.245	167.78	383.02	59.283	118.07	161.47	1555.4	287.1	96.159	1298.6	266.87
6	0.020833	354.88	1294.8	276.54	210.99	1522.3	451.35	193.36	1511.6	113.21	198.76	1837.9	271.51	331.24	1002.3	415.85	336.04	1014.3	165.95	122.52	1047.2	314.32	131.39	1049.9	232.49	233.72	929.14	479.86	214	937.01	100.26	249.95	1097.9	457.15	236.8	1102.2	119.03	103.78	1007.9	272.81	204.11	676.23	492.19	270.77	583.96	466.16	194.64	585.57	485.87	290.7	692.76	477.36	211.97	515.79	479.49	190.87	498.84	354.61	135.79	294.03	494.96	208.23	215.77	465.11	137.46	223.29	484.69	202.79	287.37	482.08	155.87	108.17	475.71	182.82	114.65	388.9	96.917	74.04	419.59	109.42	43.968	390.39	97.835	42.134	454.11	262.08	39.748	519.09	310.59	39.272	405.83	367.05	56.387	461.1	167.69	713.1	96.232	235.56	607.14	90.361	165.27	623.53	98.652	233.02	697.28	82.183	192.19	522.13	95.988	193.93	500.14	217.84	109.32	343.03	81.966	184.45	262.15	74.155	120.55	265.6	83.057	173.02	338.14	73.135	176.22	105.47	82.177	185.27	109.04	173.15	106.09	71.771	122	112.82	46.869	155.47	110.62	44.272	93.982	293.7	42.991	52.844	326.45	49.256	167.86	383	59.272	118.07	161.54	1555.4	287.11	96.165	1298.6	266.87
7	0.025	354.88	1294.7	276.5	211.01	1522.3	451.36	194.22	1511.6	113.1	198.8	1837.9	271.53	331.26	1002.2	415.84	336.05	1014.3	165.96	122.53	1047.2	314.31	131.41	1049.9	232.45	233.76	929.14	479.87	214.01	937.03	100.26	250	1097.9	457.15	236.72	1102.2	119	103.78	1007.9	272.79	204.13	676.24	492.21	270.81	583.94	466.19	194.68	585.59	485.91	290.72	692.74	477.39	211.99	515.79	479.49	190.89	498.87	354.61	135.83	294.09	495.09	208.25	215.77	465.1	137.29	223.34	484.68	202.07	286.86	482.9	155.86	108.17	475.75	182.79	114.66	388.91	96.927	74.055	419.6	109.39	43.983	390.43	97.827	42.148	454.14	262.1	39.797	519.14	310.81	39.646	405.39	367.31	56.669	460.7	167.69	713.09	96.281	235.58	607.15	90.356	165.27	623.54	98.709	233.07	697.34	82.121	192.21	522.15	96.008	193.89	500.14	217.87	109.42	343.09	81.924	184.46	262.16	74.176	120.56	265.62	83.088	173.03	338.15	73.165	176.17	105.54	82.156	185.29	109.05	173.18	106.09	71.783	122	112.81	46.874	155.48	110.61	44.288	94.01	293.71	43.014	52.862	326.46	49.267	167.94	382.99	59.261	118.07	161.6	1555.4	287.11	96.172	1298.6	266.87
8	0.029167	354.88	1294.7	276.48	211.04	1522.3	451.38	194.97	1511.5	113.01	198.84	1837.8	271.54	331.28	1002.2	415.84	336.06	1014.3	165.98	122.54	1047.3	314.3	131.43	1049.9	232.41	233.78	929.14	479.88	214.03	937.05	100.26	250.04	1097.9	457.16	236.64	1102.3	118.97	103.79	1007.9	272.78	204.16	676.25	492.23	270.84	583.93	466.22	194.71	585.6	485.95	290.74	692.72	477.41	212.01	515.78	479.48	190.92	498.9	354.62	135.87	294.14	495.2	208.26	215.76	465.1	137.14	223.38	484.68	201.43	286.43	483.59	155.85	108.18	475.79	182.77	114.66	388.92	96.936	74.069	419.61	109.36	43.997	390.46	97.818	42.159	454.17	262.11	39.84	519.18	310.99	39.977	405	367.56	56.934	460.31	167.69	713.09	96.325	235.6	607.16	90.351	165.28	623.54	98.759	233.11	697.4	82.066	192.24	522.18	96.026	193.86	500.14	217.89	109.5	343.15	81.885	184.47	262.17	74.195	120.57	265.63	83.116	173.04	338.16	73.191	176.14	105.61	82.138	185.31	109.06	173.2	106.08	71.794	122	112.8	46.878	155.49	110.6	44.302	94.036	293.72	43.034	52.879	326.46	49.276	168	382.98	59.252	118.08	161.66	1555.4	287.12	96.178	1298.6	266.87
9	0.033333	354.88	1294.6	276.45	211.06	1522.3	451.39	195.61	1511.5	112.93	198.88	1837.8	271.55	331.29	1002.2	415.83	336.07	1014.3	165.99	122.56	1047.3	314.29	131.44	1049.9	232.38	233.81	929.15	479.89	214.04	937.06	100.26	250.07	1097.9	457.17	236.58	1102.3	118.95	103.79	1007.9	272.76	204.18	676.26	492.24	270.87	583.91	466.25	194.74	585.62	485.99	290.76	692.71	477.43	212.03	515.78	479.48	190.94	498.93	354.62	135.9	294.18	495.3	208.28	215.76	465.1	137	223.41	484.67	200.9	286.1	484.14	155.84	108.18	475.82	182.74	114.66	388.94	96.943	74.08	419.62	109.34	44.009	390.49	97.81	42.17	454.2	262.13	39.879	519.21	311.13	40.263	404.65	367.79	57.175	459.96	167.69	713.09	96.363	235.62	607.17	90.347	165.28	623.54	98.802	233.15	697.45	82.019	192.26	522.2	96.042	193.83	500.14	217.92	109.58	343.2	81.849	184.48	262.18	74.211	120.57	265.65	83.139	173.05	338.17	73.214	176.11	105.67	82.122	185.32	109.07	173.23	106.08	71.803	122.01	112.8	46.882	155.5	110.6	44.314	94.059	293.73	43.052	52.894	326.46	49.285	168.06	382.97	59.243	118.08	161.71	1555.4	287.12	96.185	1298.6	266.87
10	0.0375	354.88	1294.6	276.43	211.08	1522.3	451.4	196.15	1511.5	112.86	198.91	1837.8	271.57	331.31	1002.2	415.83	336.08	1014.3	166	122.57	1047.3	314.28	131.46	1049.9	232.35	233.84	929.15	479.89	214.05	937.07	100.26	250.11	1097.9	457.17	236.53	1102.3	118.92	103.79	1007.9	272.76	204.2	676.27	492.25	270.89	583.9	466.27	194.77	585.63	486.02	290.77	692.7	477.45	212.05	515.78	479.48	190.96	498.95	354.62	135.93	294.22	495.39	208.29	215.76	465.09	136.89	223.44	484.67	200.46	285.85	484.56	155.84	108.18	475.86	182.72	114.66	388.95	96.949	74.09	419.62	109.32	44.019	390.52	97.803	42.178	454.22	262.14	39.913	519.24	311.23	40.503	404.35	368	57.39	459.64	167.69	713.09	96.396	235.64	607.18	90.344	165.28	623.54	98.839	233.18	697.49	81.979	192.28	522.21	96.055	193.8	500.15	217.94	109.65	343.24	81.818	184.49	262.19	74.225	120.58	265.66	83.16	173.06	338.18	73.234	176.08	105.72	82.109	185.33	109.08	173.24	106.08	71.811	122.01	112.79	46.886	155.51	110.59	44.325	94.078	293.73	43.067	52.907	326.46	49.293	168.11	382.96	59.236	118.08	161.76	1555.4	287.12	96.192	1298.6	266.87
11	0.041667	354.88	1294.5	276.42	211.1	1522.3	451.41	196.58	1511.5	112.81	198.95	1837.8	271.58	331.32	1002.2	415.82	336.08	1014.3	166	122.58	1047.3	314.27	131.47	1049.9	232.33	233.86	929.15	479.9	214.06	937.09	100.26	250.13	1097.9	457.17	236.49	1102.3	118.91	103.8	1007.9	272.75	204.22	676.28	492.26	270.92	583.89	466.29	194.79	585.64	486.04	290.79	692.69	477.47	212.06	515.78	479.48	190.97	498.97	354.62	135.96	294.25	495.46	208.3	215.75	465.09	136.79	223.47	484.66	200.12	285.69	484.85	155.83	108.19	475.89	182.7	114.66	388.97	96.954	74.097	419.63	109.3	44.028	390.54	97.796	42.186	454.24	262.14	39.943	519.27	311.3	40.699	404.09	368.19	57.578	459.36	167.69	713.08	96.424	235.65	607.18	90.341	165.29	623.54	98.87	233.21	697.53	81.945	192.29	522.23	96.067	193.78	500.15	217.95	109.71	343.28	81.79	184.49	262.2	74.236	120.58	265.67	83.177	173.07	338.19	73.25	176.06	105.76	82.099	185.35	109.09	173.26	106.08	71.818	122.01	112.78	46.889	155.52	110.58	44.334	94.095	293.74	43.081	52.918	326.46	49.3	168.15	382.96	59.229	118.08	161.8	1555.4	287.13	96.199	1298.6	266.87
